<svg width="273" height="164" xmlns="http://www.w3.org/2000/svg" xmlns:xlink="http://www.w3.org/1999/xlink" overflow="hidden"><defs><clipPath id="clip0"><rect x="520" y="2440" width="273" height="164"/></clipPath></defs><g clip-path="url(#clip0)" transform="translate(-520 -2440)"><path d="M594.782 2443.31C621.636 2435.62 670.249 2442.7 703.185 2460.44 736.122 2478.18 793.712 2527.45 792.401 2549.77 791.09 2572.08 737.044 2601.56 695.32 2594.36 653.596 2587.16 557.979 2532.26 542.059 2506.57 526.14 2480.89 567.928 2451 594.782 2443.31Z" fill="#3EAD7A" fill-rule="evenodd"/><path d="M596.504 2558.99C567.005 2554.32 513.043 2541.38 525.274 2528.8 537.506 2516.22 629.6 2482.79 669.891 2483.51 710.182 2484.23 761.625 2520.89 767.021 2533.11 772.417 2545.33 731.047 2552.52 702.268 2556.84 673.488 2561.15 626.002 2563.66 596.504 2558.99Z" stroke="#222A35" stroke-width="6.875" stroke-miterlimit="8" fill="none" fill-rule="evenodd"/><path d="M587.746 2579.43C578.045 2574.77 575.529 2551.79 587.746 2544.98 599.963 2538.16 639.128 2536 661.046 2538.51 682.964 2541.03 709.553 2553.23 719.254 2560.05 728.955 2566.87 731.471 2577.28 719.254 2579.43 707.037 2581.59 666.795 2574.05 645.954 2572.97 625.114 2571.89 597.447 2584.1 587.746 2579.43Z" stroke="#222A35" stroke-width="6.875" stroke-miterlimit="8" fill="none" fill-rule="evenodd"/><path d="M747.323 2548.5C748.413 2548.15 755.32 2568.21 758.228 2576.45 761.136 2584.69 767.68 2594.36 764.772 2597.95 761.863 2601.53 742.96 2601.17 740.779 2597.95 738.598 2594.72 749.867 2586.48 751.685 2578.6 753.502 2570.72 746.232 2548.86 747.323 2548.5Z" stroke="#222A35" stroke-width="6.875" stroke-miterlimit="8" fill="none" fill-rule="evenodd"/></g></svg>