<svg width="116" height="74" xmlns="http://www.w3.org/2000/svg" xmlns:xlink="http://www.w3.org/1999/xlink" overflow="hidden"><defs><clipPath id="clip0"><rect x="2264" y="2497" width="116" height="74"/></clipPath></defs><g clip-path="url(#clip0)" transform="translate(-2264 -2497)"><path d="M2274.5 2503.5C2285.26 2503.02 2325.89 2510.27 2371.5 2503.5 2372.9 2523.88 2375.21 2549.04 2371.5 2564.5 2360.85 2568.35 2304.08 2557.29 2274.5 2564.5 2279.57 2555.31 2270.27 2527.26 2274.5 2503.5Z" fill="#3EAD7A" fill-rule="evenodd"/><path d="M2274.5 2503.5C2308.86 2511.33 2328.1 2494.48 2371.5 2503.5 2376.01 2521.58 2374.39 2539.66 2371.5 2564.5 2332.53 2562.31 2315.59 2567.81 2274.5 2564.5 2270.72 2542.62 2271.09 2528.8 2274.5 2503.5Z" stroke="#44546A" stroke-width="6.875" stroke-miterlimit="8" fill="none" fill-rule="evenodd"/><path d="M2274.5 2564.5C2299.23 2544.82 2313.65 2536.1 2323 2520.5 2343.34 2537.38 2356.24 2551.94 2371.5 2564.5 2358.43 2569.26 2318.63 2573.63 2274.5 2564.5Z" fill="#3EAD7A" fill-rule="evenodd"/><path d="M2274.5 2564.5C2284.81 2553.44 2317.05 2528.3 2323 2520.5 2342.12 2542.18 2358.98 2546.07 2371.5 2564.5 2327.06 2564.06 2299.9 2558.79 2274.5 2564.5Z" stroke="#44546A" stroke-width="6.875" stroke-miterlimit="8" fill="none" fill-rule="evenodd"/><path d="M2371.5 2504.5C2360 2510.27 2344.13 2533.69 2323 2547.5 2299.85 2526.48 2291.17 2515.85 2274.5 2504.5 2291.12 2503.62 2332.19 2510.56 2371.5 2504.5Z" fill="#AEE2CA" fill-rule="evenodd"/><path d="M2371.5 2504.5C2354.04 2524.66 2341.32 2530.98 2323 2547.5 2315.75 2545.53 2283.98 2519.7 2274.5 2504.5 2297.94 2500.84 2329.5 2507.89 2371.5 2504.5Z" stroke="#44546A" stroke-width="6.875" stroke-miterlimit="8" fill="none" fill-rule="evenodd"/></g></svg>