<svg width="227" height="228" xmlns="http://www.w3.org/2000/svg" xmlns:xlink="http://www.w3.org/1999/xlink" overflow="hidden"><defs><clipPath id="clip0"><rect x="926" y="2424" width="227" height="228"/></clipPath></defs><g clip-path="url(#clip0)" transform="translate(-926 -2424)"><path d="M1096.63 2602.94C1081.29 2628.8 1068.51 2645.1 1052.33 2645.52 1036.16 2645.95 1006.75 2629.45 999.605 2605.49 992.462 2581.52 996.785 2519.24 1009.47 2501.73 1022.16 2484.23 1060.27 2509.34 1075.73 2500.46 1091.2 2491.57 1090.83 2450.1 1102.26 2448.42 1113.7 2446.73 1145.29 2466.17 1144.35 2490.35 1143.41 2514.53 1111.97 2577.08 1096.63 2602.94Z" fill="#3EAD7A" fill-rule="evenodd"/><path d="M1077.78 2469.55C1090.83 2460.29 1100.51 2454.29 1106.66 2451.6 1115.44 2458.45 1118.03 2462.66 1123.59 2468.59 1120.38 2475.16 1113.63 2490.11 1105.7 2497.57 1111.73 2508.99 1116.71 2523.23 1116.16 2536.74 1129.81 2546.31 1138.18 2548.32 1146.09 2552.86 1143.62 2559.1 1142.73 2567.44 1139.89 2576.07 1131.95 2576.71 1111.95 2576.31 1105.94 2575.02 1099.89 2587.38 1090.71 2597.19 1077.37 2603.69 1079.69 2612.06 1075.93 2634.33 1078.42 2637.77 1067.43 2642.46 1061.54 2640.55 1055.3 2643.98 1052.73 2634.3 1045.28 2619.51 1039.24 2613.94 1026.7 2612.96 1012.12 2610.11 1000.22 2603.45 995.404 2606.96 977.473 2619.39 971.336 2621.4 968.396 2618.61 961.954 2612.69 954.411 2604.41 959.743 2595.7 968.489 2584.56 972.297 2575.43 965.164 2563.97 963.247 2551.1 961.841 2536.26 957.605 2533.42 938.127 2521.07 931.912 2520.14 932.249 2512.31 937.484 2500.51 938.107 2496.93 945.812 2496.03 962.477 2498.69 972.06 2497.98 979.313 2483.54 987.621 2476.09 1000.63 2469.31 1000.58 2457.17 997.755 2440.23 999.576 2435.23 1006.2 2433.68 1016.11 2428.76 1022.7 2429.02 1028.46 2434.79 1036.41 2455 1038.76 2459.06 1054.53 2460.32 1065.01 2462.84 1077.78 2469.55Z" stroke="#222A35" stroke-width="10.3125" stroke-miterlimit="8" fill="none" fill-rule="evenodd"/></g></svg>