<svg width="86" height="145" xmlns="http://www.w3.org/2000/svg" xmlns:xlink="http://www.w3.org/1999/xlink" overflow="hidden"><defs><clipPath id="clip0"><rect x="2268" y="2309" width="86" height="145"/></clipPath></defs><g clip-path="url(#clip0)" transform="translate(-2268 -2309)"><path d="M2271.5 2325.25C2270.32 2318.11 2277.14 2313.59 2284.67 2313.5 2308.38 2313.69 2315.8 2311.66 2337.33 2313.5 2343.83 2314.18 2350.36 2319.47 2350.5 2325.25 2351.45 2379.99 2357.69 2412.74 2350.5 2437.75 2351.72 2444.37 2345.2 2448.41 2337.33 2449.5 2329.98 2447.64 2294.52 2446.5 2284.67 2449.5 2277.37 2449.33 2270.93 2444.95 2271.5 2437.75 2269.68 2419.83 2274.49 2346.07 2271.5 2325.25Z" fill="#3EAD7A" fill-rule="evenodd"/><path d="M2271.5 2325.25C2270.9 2318.68 2278.09 2314.01 2284.67 2313.5 2303.28 2309.63 2328.29 2317.44 2337.33 2313.5 2345.22 2314.35 2350.63 2318.91 2350.5 2325.25 2343.41 2370.71 2354.55 2425.7 2350.5 2437.75 2349.39 2444.4 2344.25 2449.28 2337.33 2449.5 2316.21 2453.44 2307.41 2446.73 2284.67 2449.5 2277.41 2449.36 2270.93 2444.53 2271.5 2437.75 2274.55 2412.23 2270.66 2358.39 2271.5 2325.25Z" stroke="#44546A" stroke-width="4.58333" stroke-miterlimit="8" fill="none" fill-rule="evenodd"/><path d="M2313.36 2320.5C2315.15 2320.53 2321.8 2319.73 2329.64 2320.5 2331.97 2320.61 2333.26 2322.31 2333.5 2324 2333.31 2325.81 2331.83 2327.39 2329.64 2327.5 2321.6 2328.47 2319.41 2328.44 2313.36 2327.5 2311.08 2327.55 2309.23 2325.89 2309.5 2324 2309.47 2321.97 2310.87 2320.66 2313.36 2320.5Z" fill="#AEE2CA" fill-rule="evenodd"/><path d="M2313.36 2320.5C2320.34 2319.41 2327.51 2320.34 2329.64 2320.5 2331.68 2320.8 2333.36 2322.11 2333.5 2324 2333.51 2326.08 2331.96 2327.78 2329.64 2327.5 2324.27 2327.4 2321.19 2326.53 2313.36 2327.5 2311.17 2327.17 2309.24 2325.86 2309.5 2324 2309.7 2322.18 2311.17 2320.61 2313.36 2320.5Z" stroke="#44546A" stroke-width="3.4375" stroke-miterlimit="8" fill="none" fill-rule="evenodd"/><path d="M0 8.49992C-0.642322 4.1273 4.07043-0.616838 8.49992 0 13.7055-0.263519 17.4501 3.31867 16.9998 8.49992 17.033 13.1507 13.6769 17.2234 8.49992 16.9998 3.93279 16.7517-0.0473947 12.9715 0 8.49992Z" fill="#AEE2CA" fill-rule="evenodd" transform="matrix(1 0 0 -1 2304.5 2446.5)"/><path d="M0 8.49992C0.021543 3.86517 3.70216 0.0523644 8.49992 0 12.7613 0.159618 16.8672 3.26222 16.9998 8.49992 16.9963 12.7746 13.4012 16.7739 8.49992 16.9998 3.90418 16.7188 0.483436 13.523 0 8.49992Z" stroke="#44546A" stroke-width="3.4375" stroke-miterlimit="8" fill="none" fill-rule="evenodd" transform="matrix(1 0 0 -1 2304.5 2446.5)"/><path d="M2281.5 2334.5C2306.5 2333.42 2320.86 2337.69 2339.5 2334.5 2333.22 2361.53 2343.51 2391.28 2339.5 2425.5 2317.37 2426.17 2289.16 2427.03 2281.5 2425.5 2280.55 2409.4 2274.3 2365.88 2281.5 2334.5Z" fill="#AEE2CA" fill-rule="evenodd"/><path d="M2281.5 2334.5C2307.95 2336.69 2326.3 2332.16 2339.5 2334.5 2343.64 2363.42 2336.07 2402.69 2339.5 2425.5 2315.82 2424.24 2289.36 2429.5 2281.5 2425.5 2279.68 2386.7 2284.49 2367.7 2281.5 2334.5Z" stroke="#44546A" stroke-width="3.4375" stroke-miterlimit="8" fill="none" fill-rule="evenodd"/></g></svg>