<svg width="76" height="127" xmlns="http://www.w3.org/2000/svg" xmlns:xlink="http://www.w3.org/1999/xlink" overflow="hidden"><defs><clipPath id="clip0"><rect x="2279" y="2609" width="76" height="127"/></clipPath></defs><g clip-path="url(#clip0)" transform="translate(-2279 -2609)"><path d="M2318.95 2637.26C2316.22 2636.79 2313.67 2637.2 2311.34 2638.28L2310.5 2638.95 2310.39 2638.97C2302.44 2642.23 2296.78 2649.9 2297.71 2659.94 2298.13 2663.18 2299.01 2666.27 2300.27 2669.07L2302.46 2672.45 2303.73 2675.82C2305.51 2677.79 2307.66 2679.37 2310.2 2680.52L2310.65 2680.63 2311.45 2681.23C2313.8 2682.3 2316.33 2682.81 2318.95 2682.61 2330.47 2683.9 2339.81 2672.87 2340.18 2659.94 2339.86 2657.15 2339.05 2654.33 2337.84 2651.67L2336.29 2649.25 2334.41 2644.08C2330.9 2640.03 2325.76 2637.49 2318.95 2637.26ZM2320.72 2612.51C2329.68 2612.69 2338.38 2615.11 2342.04 2620.33 2347.11 2624.01 2349.55 2631.37 2350.44 2640.19L2350.42 2640.85 2350.62 2641.32C2352.02 2649.88 2351.81 2659.53 2349.58 2668.83 2345.9 2687.99 2328.29 2732.98 2315.99 2732.41 2303.33 2735 2283.39 2683.7 2283.03 2665.89 2281.77 2656.33 2282.81 2646.67 2285.49 2638.26L2286.29 2636.95 2290.79 2625.95C2292.76 2622.6 2295.09 2619.9 2297.78 2618.12 2302.52 2614.39 2311.75 2612.33 2320.72 2612.51Z" stroke="#44546A" stroke-width="6.875" stroke-miterlimit="8" fill="#3EAD7A" fill-rule="evenodd"/></g></svg>