<svg width="283" height="179" xmlns="http://www.w3.org/2000/svg" xmlns:xlink="http://www.w3.org/1999/xlink" overflow="hidden"><defs><clipPath id="clip0"><rect x="1667" y="2443" width="283" height="179"/></clipPath></defs><g clip-path="url(#clip0)" transform="translate(-1667 -2443)"><path d="M1667.01 2507.63C1667.96 2478.7 1739.02 2440.76 1772.18 2447.87 1805.35 2454.99 1866.94 2521.39 1865.99 2550.32 1865.04 2579.25 1798.72 2627.63 1766.5 2621.46 1734.28 2615.3 1666.06 2536.56 1667.01 2507.63Z" fill="#3EAD7A" fill-rule="evenodd"/><path d="M1716.5 2476.5C1779.18 2488.02 1828.97 2478.96 1932.5 2476.5 1923.91 2490.77 1930.48 2566.96 1932.5 2598.5 1830.73 2581.41 1793.31 2584.94 1716.5 2598.5 1715.08 2555.45 1709.31 2527.63 1716.5 2476.5Z" stroke="#222A35" stroke-width="9.16667" stroke-miterlimit="8" fill="none" fill-rule="evenodd"/><path d="M1800.5 2514.5C1809.48 2513.49 1821.97 2514.32 1836.5 2514.5 1838.27 2517.72 1837.31 2528.5 1836.5 2536.5 1825.44 2536.57 1811.54 2537.26 1800.5 2536.5 1800.89 2529.14 1799.15 2525.16 1800.5 2514.5Z" stroke="#222A35" stroke-width="9.16667" stroke-miterlimit="8" fill="none" fill-rule="evenodd"/><path d="M1699.5 2518.5C1748.82 2521.79 1798.14 2525.07 1839.81 2525.46 1881.47 2525.85 1915.49 2523.33 1949.5 2520.82" stroke="#222A35" stroke-width="9.16667" stroke-miterlimit="8" fill="none" fill-rule="evenodd"/><path d="M1769.63 2478.5C1768.31 2472.17 1768.11 2462.03 1764.5 2450.82 1785.79 2456.73 1851.78 2453.26 1870.5 2449.5 1869.1 2455.57 1865.35 2464.3 1865.37 2478.5L1865.37 2478.5" stroke="#222A35" stroke-width="9.16667" stroke-miterlimit="8" fill="none" fill-rule="evenodd"/></g></svg>