<svg width="306" height="179" xmlns="http://www.w3.org/2000/svg" xmlns:xlink="http://www.w3.org/1999/xlink" overflow="hidden"><defs><clipPath id="clip0"><rect x="1252" y="2442" width="306" height="179"/></clipPath></defs><g clip-path="url(#clip0)" transform="translate(-1252 -2442)"><path d="M1505.86 2556.34C1509.76 2550.64 1519.73 2545.12 1528.28 2544.33 1536.82 2543.54 1554.29 2546.31 1557.14 2551.59 1559.99 2556.87 1554.07 2571.51 1545.36 2576 1536.65 2580.48 1511.37 2582.01 1504.87 2578.49 1498.37 2574.97 1501.96 2562.03 1505.86 2556.34Z" fill="#3EAD7A" fill-rule="evenodd"/><path d="M1294.26 2450.49C1317.75 2437.54 1383.74 2440.92 1394.93 2450.49 1406.12 2460.06 1384.86 2494.97 1361.37 2507.92 1337.89 2520.87 1263.5 2537.76 1254 2528.19 1244.49 2518.62 1270.77 2463.44 1294.26 2450.49Z" fill="#3EAD7A" fill-rule="evenodd"/><path d="M1290.24 2467.94C1284.22 2501.62 1294.25 2516.16 1294.7 2561.19 1349.59 2545.24 1393.73 2544.98 1449.51 2553.97 1451.02 2538.67 1438.09 2502.16 1441.63 2470.08 1396.84 2467.76 1345.46 2460.76 1290.24 2467.94Z" stroke="#222A35" stroke-width="9.16667" stroke-miterlimit="8" fill="none" fill-rule="evenodd"/><path d="M1439.65 2568.92C1452.74 2580.29 1503.81 2587.18 1520.8 2590.9 1473.63 2584.22 1312.8 2589.93 1289.03 2609.77 1291 2596.44 1288.9 2588.82 1291.42 2575.4 1324.56 2578.12 1393.21 2561.18 1439.65 2568.92Z" stroke="#222A35" stroke-width="9.16667" stroke-miterlimit="8" fill="none" fill-rule="evenodd"/><path d="M1478.58 2560.08C1477.34 2562.62 1491.15 2569.24 1500.77 2572.29 1510.38 2575.35 1529.12 2579.16 1536.27 2578.4 1543.42 2577.64 1548.35 2571.28 1543.66 2567.71 1538.98 2564.15 1518.52 2558.55 1508.16 2557.03 1497.81 2555.5 1479.81 2557.53 1478.58 2560.08Z" stroke="#222A35" stroke-width="9.16667" stroke-miterlimit="8" fill="none" fill-rule="evenodd"/></g></svg>